<svg width="512" height="512" viewBox="0 0 512 512" xmlns="http://www.w3.org/2000/svg" role="img" aria-label="LifeSnaps">
  <rect width="512" height="512" rx="118" ry="118" fill="#4A154B"></rect>
  <path d="M 86 312 C 110 312 116 280 138 278 C 162 276 168 318 192 320 C 214 322 244 196 256 196 C 268 196 298 388 320 392 C 344 396 352 292 376 290 C 400 288 410 312 426 312" fill="none" stroke="#FFFFFF" stroke-width="20" stroke-linecap="round" stroke-linejoin="round"></path>
  <path d="M 123.72 220.66 C 129.39 243.34 129.39 243.34 152.07 249.01 C 129.39 254.68 129.39 254.68 123.72 277.36 C 118.05 254.68 118.05 254.68 95.37 249.01 C 118.05 243.34 118.05 243.34 123.72 220.66 Z" fill="#C98AA0"></path>
  <path d="M 189.97 326.73 C 196.18 351.57 196.18 351.57 221.02 357.78 C 196.18 363.99 196.18 363.99 189.97 388.83 C 183.76 363.99 183.76 363.99 158.92 357.78 C 183.76 351.57 183.76 351.57 189.97 326.73 Z" fill="#C98AA0"></path>
  <path d="M 332.35 390.74 C 338.02 413.42 338.02 413.42 360.7 419.09 C 338.02 424.76 338.02 424.76 332.35 447.44 C 326.68 424.76 326.68 424.76 304 419.09 C 326.68 413.42 326.68 413.42 332.35 390.74 Z" fill="#C98AA0"></path>
  <path d="M 393.83 224.5 C 400.04 249.34 400.04 249.34 424.88 255.55 C 400.04 261.76 400.04 261.76 393.83 286.6 C 387.62 261.76 387.62 261.76 362.78 255.55 C 387.62 249.34 387.62 249.34 393.83 224.5 Z" fill="#C98AA0"></path>
  <path d="M 256 102 C 264.64 147.36 264.64 147.36 310 156 C 264.64 164.64 264.64 164.64 256 210 C 247.36 164.64 247.36 164.64 202 156 C 247.36 147.36 247.36 147.36 256 102 Z" fill="#F2C94C"></path>
</svg>